<svg width="24" height="24" viewBox="0 0 24 24" fill="none" xmlns="http://www.w3.org/2000/svg">
<path d="M12.0002 0.333252C5.57183 0.333252 0.333496 5.57159 0.333496 11.9999C0.333496 18.4283 5.57183 23.6666 12.0002 23.6666C18.4285 23.6666 23.6668 18.4283 23.6668 11.9999C23.6668 5.57159 18.4285 0.333252 12.0002 0.333252ZM11.1252 7.33325C11.1252 6.85492 11.5218 6.45825 12.0002 6.45825C12.4785 6.45825 12.8752 6.85492 12.8752 7.33325V13.1666C12.8752 13.6449 12.4785 14.0416 12.0002 14.0416C11.5218 14.0416 11.1252 13.6449 11.1252 13.1666V7.33325ZM13.0735 17.1099C13.0152 17.2616 12.9335 17.3783 12.8285 17.4949C12.7118 17.5999 12.5835 17.6816 12.4435 17.7399C12.3035 17.7983 12.1518 17.8333 12.0002 17.8333C11.8485 17.8333 11.6968 17.7983 11.5568 17.7399C11.4168 17.6816 11.2885 17.5999 11.1718 17.4949C11.0668 17.3783 10.9852 17.2616 10.9268 17.1099C10.8685 16.9699 10.8335 16.8183 10.8335 16.6666C10.8335 16.5149 10.8685 16.3633 10.9268 16.2233C10.9852 16.0833 11.0668 15.9549 11.1718 15.8383C11.2885 15.7333 11.4168 15.6516 11.5568 15.5933C11.8368 15.4766 12.1635 15.4766 12.4435 15.5933C12.5835 15.6516 12.7118 15.7333 12.8285 15.8383C12.9335 15.9549 13.0152 16.0833 13.0735 16.2233C13.1318 16.3633 13.1668 16.5149 13.1668 16.6666C13.1668 16.8183 13.1318 16.9699 13.0735 17.1099Z" fill="#0DCAF0"/>
</svg>
