<svg width="36" height="25" viewBox="0 0 36 25" fill="none" xmlns="http://www.w3.org/2000/svg">
<path d="M10.8479 12.3269C14.1856 12.3269 16.8081 9.7044 16.8081 6.36669C16.8081 3.02898 14.1856 0.406494 10.8479 0.406494C7.51018 0.406494 4.8877 3.02898 4.8877 6.36669C4.8877 9.7044 7.51018 12.3269 10.8479 12.3269Z" fill="#59CA96"/>
<path d="M25.2717 12.3269C28.6094 12.3269 31.2319 9.7044 31.2319 6.36669C31.2319 3.02898 28.6094 0.406494 25.2717 0.406494C21.934 0.406494 19.3115 3.02898 19.3115 6.36669C19.3115 9.7044 21.934 12.3269 25.2717 12.3269Z" fill="#59CA96"/>
<path d="M21.6954 24.2472C21.6954 24.6048 21.4569 24.8432 21.0993 24.8432H0.596264C0.238652 24.8432 0.000244141 24.6048 0.000244141 24.2472C0.000244141 19.3598 4.88761 15.3069 10.8478 15.3069C13.5895 15.3069 16.0928 16.1413 18 17.5718C20.2649 19.2406 21.6954 21.6247 21.6954 24.2472Z" fill="#59CA96"/>
<path d="M36.0006 24.2472C36.0006 24.6048 35.7622 24.8432 35.4046 24.8432H23.961C23.961 24.6048 23.961 24.4856 23.961 24.2472C23.961 21.1479 22.5306 18.4062 20.1465 16.2605C21.5769 15.6645 23.365 15.3069 25.153 15.3069C31.2325 15.3069 36.0006 19.3598 36.0006 24.2472Z" fill="#59CA96"/>
</svg>
