<svg width="36" height="36" viewBox="0 0 36 36" fill="none" xmlns="http://www.w3.org/2000/svg">
<path d="M21.5251 3H14.4751C12.9151 3 11.6401 4.26 11.6401 5.82V7.23C11.6401 8.79 12.9001 10.05 14.4601 10.05H21.5251C23.0851 10.05 24.3451 8.79 24.3451 7.23V5.82C24.3601 4.26 23.0851 3 21.5251 3Z" fill="#1B959F"/>
<path d="M25.8601 7.22997C25.8601 9.61497 23.9101 11.565 21.5251 11.565H14.4751C12.0901 11.565 10.1401 9.61497 10.1401 7.22997C10.1401 6.38997 9.24006 5.86497 8.49006 6.25497C6.37506 7.37997 4.93506 9.61497 4.93506 12.18V26.295C4.93506 29.985 7.95006 33 11.6401 33H24.3601C28.0501 33 31.0651 29.985 31.0651 26.295V12.18C31.0651 9.61497 29.6251 7.37997 27.5101 6.25497C26.7601 5.86497 25.8601 6.38997 25.8601 7.22997ZM23.0101 19.095L17.0101 25.095C16.7851 25.32 16.5001 25.425 16.2151 25.425C15.9301 25.425 15.6451 25.32 15.4201 25.095L13.1701 22.845C12.7351 22.41 12.7351 21.69 13.1701 21.255C13.6051 20.82 14.3251 20.82 14.7601 21.255L16.2151 22.71L21.4201 17.505C21.8551 17.07 22.5751 17.07 23.0101 17.505C23.4451 17.94 23.4451 18.66 23.0101 19.095Z" fill="#1B959F"/>
</svg>
