<svg width="28" height="30" viewBox="0 0 28 30" fill="none" xmlns="http://www.w3.org/2000/svg">
<path d="M13.9307 14.6439C15.4012 14.6439 16.8387 14.2145 18.0614 13.4099C19.2841 12.6054 20.2371 11.4618 20.7998 10.1239C21.3626 8.78603 21.5098 7.31383 21.2229 5.89351C20.936 4.47319 20.2279 3.16854 19.1881 2.14455C18.1483 1.12056 16.8235 0.423211 15.3812 0.140692C13.939 -0.141826 12.444 0.00317251 11.0854 0.557353C9.72684 1.11153 8.56563 2.05001 7.74866 3.25409C6.93168 4.45818 6.49562 5.87381 6.49562 7.32195C6.49395 8.28394 6.68512 9.2368 7.05817 10.1259C7.43123 11.015 7.97883 11.8228 8.66958 12.503C9.36032 13.1833 10.1806 13.7225 11.0834 14.0899C11.9863 14.4573 12.9538 14.6455 13.9307 14.6439Z" fill="#0A6565"/>
<path d="M27.4301 29.2628C27.4318 29.359 27.414 29.4546 27.3777 29.5439C27.3415 29.6333 27.2876 29.7147 27.2191 29.7833C27.1506 29.8519 27.0689 29.9064 26.9787 29.9436C26.8886 29.9808 26.7919 30 26.6942 30H1.16618C1.06847 30 0.971725 29.9808 0.881604 29.9436C0.791484 29.9064 0.709789 29.8519 0.641286 29.7833C0.572784 29.7147 0.518845 29.6333 0.482618 29.5439C0.446391 29.4546 0.4286 29.359 0.430285 29.2628C0.430285 24.1149 4.8076 19.7917 10.6948 18.6297C11.4417 18.4661 12.2015 18.3657 12.9659 18.3298C12.8771 18.9171 12.801 19.4918 12.6995 20.0916C12.5472 21.1786 12.3949 22.2782 12.2554 23.3527C12.1158 24.4273 11.9382 25.4394 11.7859 26.5014C11.7753 26.5365 11.777 26.5742 11.7908 26.6082C11.8047 26.6422 11.8298 26.6706 11.8621 26.6888L13.1308 27.9383C13.3846 28.1757 13.651 28.4131 13.9048 28.6755C14.1586 28.4131 14.425 28.1757 14.6788 27.9383L15.9475 26.6888C15.9798 26.6706 16.0049 26.6422 16.0188 26.6082C16.0326 26.5742 16.0343 26.5365 16.0237 26.5014C15.8714 25.4394 15.7065 24.4023 15.5542 23.3527C15.402 22.3032 15.2624 21.1786 15.1101 20.0916C15.0086 19.4918 14.9325 18.9171 14.8437 18.3298C15.6071 18.3678 16.3664 18.4639 17.1148 18.6172C19.1846 19.0289 21.1377 19.8818 22.8371 21.1162C24.2086 22.0132 25.3416 23.2212 26.1408 24.6387C26.94 26.0563 27.3822 27.6421 27.4301 29.2628Z" fill="#0A6565"/>
</svg>
