<svg width="22" height="23" viewBox="0 0 22 23" fill="none" xmlns="http://www.w3.org/2000/svg">
<path d="M20.1755 6.88124H15.9345C15.8288 6.88068 15.7243 6.85906 15.6271 6.81763C15.4317 6.73397 15.276 6.5783 15.1924 6.38293C15.1597 6.29091 15.1418 6.19429 15.1394 6.09666V1.8557C12.8808 0.786361 10.317 0.54917 7.9006 1.18598C5.48415 1.82279 3.3703 3.29267 1.93206 5.33624C0.493812 7.37982 -0.17638 9.86573 0.0397421 12.3553C0.255865 14.8449 1.34441 17.1781 3.11329 18.9433C4.88218 20.7085 7.2177 21.7921 9.70774 22.003C12.1978 22.2138 14.6823 21.5384 16.7228 20.0958C18.7633 18.6533 20.2288 16.5364 20.8605 14.1186C21.4922 11.7008 21.2496 9.13758 20.1755 6.88124ZM14.27 15.1935C13.9703 15.3818 13.6343 15.5046 13.2839 15.554H13.0295H12.7538L12.1813 15.448L10.4319 15.0663C10.0287 14.9527 9.59901 14.9789 9.21261 15.1405C8.90235 15.2774 8.58362 15.3943 8.25839 15.4904C8.09805 15.5334 7.92749 15.5162 7.779 15.442C7.6305 15.3677 7.51438 15.2416 7.45261 15.0875C7.40532 14.965 7.39518 14.8313 7.42347 14.7031C7.45175 14.5748 7.51721 14.4578 7.61165 14.3665C7.78129 14.1863 7.96153 14.0061 8.14177 13.847C8.39 13.6403 8.59125 13.383 8.73204 13.0923C8.87283 12.8016 8.94992 12.4842 8.95815 12.1612C8.9679 11.9705 8.9679 11.7794 8.95815 11.5887H8.7249C8.45984 11.5887 8.19478 11.5887 7.92972 11.5887C7.85796 11.5986 7.78485 11.5905 7.71706 11.5649C7.64926 11.5394 7.58891 11.4973 7.54151 11.4426C7.4941 11.3878 7.46114 11.322 7.44561 11.2513C7.43009 11.1805 7.43249 11.107 7.45261 11.0374C7.4463 10.9035 7.49091 10.7723 7.57746 10.67C7.66401 10.5677 7.78608 10.502 7.91912 10.4861C8.11688 10.4752 8.31509 10.4752 8.51285 10.4861H8.57647L8.51285 10.2422C8.38672 9.85063 8.31188 9.44435 8.2902 9.03353C8.26326 8.57908 8.37051 8.12674 8.5986 7.73276C8.8267 7.33878 9.16558 7.02055 9.57309 6.81763C10.0573 6.54275 10.6067 6.40357 11.1635 6.41473C11.5389 6.41288 11.913 6.4592 12.2767 6.55257C12.78 6.69912 13.2249 6.9994 13.549 7.41136C13.805 7.71506 13.9769 8.08066 14.0473 8.4716C14.0841 8.63865 14.0681 8.81298 14.0016 8.97058C13.9352 9.12818 13.8215 9.2613 13.6762 9.3516C13.5754 9.41342 13.4618 9.45131 13.344 9.46236C13.2263 9.47341 13.1075 9.45734 12.997 9.41536C12.8864 9.37339 12.7869 9.30663 12.7062 9.22023C12.6254 9.13382 12.5656 9.03005 12.5312 8.9169C12.4569 8.71546 12.3933 8.51401 12.3085 8.31257C12.2181 8.10943 12.0799 7.93119 11.9056 7.79305C11.7361 7.67386 11.5392 7.59944 11.3332 7.57669C11.1273 7.55395 10.9189 7.58361 10.7274 7.66294C10.536 7.74227 10.3677 7.86868 10.2382 8.03044C10.1087 8.19221 10.0221 8.38407 9.98659 8.58823C9.93808 8.90714 9.95979 9.2328 10.0502 9.54245C10.1138 9.80751 10.1986 10.062 10.2622 10.327C10.2674 10.3505 10.2811 10.3711 10.3008 10.3849C10.3204 10.3986 10.3445 10.4045 10.3683 10.4012H11.4285C11.5927 10.4068 11.7561 10.4281 11.9162 10.4649C11.9742 10.4762 12.0294 10.499 12.0785 10.5319C12.1277 10.5649 12.1697 10.6072 12.2023 10.6566C12.2349 10.7059 12.2573 10.7613 12.2682 10.8194C12.2792 10.8775 12.2785 10.9372 12.2661 10.995C12.2557 11.133 12.1948 11.2623 12.0951 11.3581C11.9953 11.454 11.8637 11.5097 11.7254 11.5145H10.5591C10.5543 11.6028 10.5543 11.6913 10.5591 11.7796C10.5386 12.2399 10.3797 12.6833 10.1032 13.0518C9.89117 13.3381 9.65791 13.6244 9.43526 13.9L9.35044 13.9955H9.46707C9.93768 13.874 10.4232 13.8205 10.909 13.8364C11.3013 13.8364 11.683 13.9106 12.0647 13.9424C12.3176 13.9794 12.5725 14.0007 12.828 14.0061C13.166 13.9974 13.4998 13.9293 13.8141 13.8046C13.9666 13.7525 14.133 13.7583 14.2815 13.8209C14.4301 13.8834 14.5505 13.9984 14.6198 14.1439C14.673 14.2319 14.7073 14.33 14.7206 14.432C14.7338 14.534 14.7257 14.6376 14.6968 14.7363C14.6679 14.835 14.6188 14.9266 14.5526 15.0053C14.4865 15.084 14.4046 15.1481 14.3124 15.1935H14.27Z" fill="white"/>
</svg>
