<svg width="73" height="26" viewBox="0 0 73 26" fill="none" xmlns="http://www.w3.org/2000/svg">
<path d="M70.8671 11.803H70.8715L70.2753 17.7149L39.2067 25.9999L4.43941 17.7149L3.84319 11.803H3.84763V11.7971L2.66406 0.109375H72.0506L70.8671 11.803Z" fill="#F6830F"/>
<path d="M3.88603 11.948V11.954H3.88155L1.9435 11.951L0.000976562 11.948L2.69063 0L3.88603 11.948Z" fill="url(#paint0_linear_2335_197661)"/>
<path d="M21.802 5.10272L21.5757 5.13971L21.262 3.95762C21.0445 3.88956 20.8108 3.85406 20.5578 3.85406C19.9512 3.85406 19.4822 4.08189 19.1494 4.53609C18.8165 4.99028 18.6508 5.58502 18.6508 6.32179C18.6508 7.10739 18.8461 7.7332 19.2381 8.19922C19.6287 8.66525 20.1717 8.89901 20.867 8.89901C21.2546 8.89901 21.6615 8.8206 22.0905 8.66377L22.1438 8.89901C21.5949 9.27183 20.975 9.45972 20.2826 9.45972C19.3846 9.45972 18.6597 9.18898 18.1063 8.64898C17.553 8.1075 17.2764 7.39588 17.2764 6.51264C17.2764 5.57171 17.5797 4.82606 18.1862 4.27718C18.7928 3.7283 19.5843 3.45312 20.5622 3.45312C21.046 3.45312 21.5402 3.50934 22.0447 3.62178L22.0698 3.66321L21.802 5.10272Z" fill="white"/>
<path d="M29.1494 6.30398C29.1494 7.25379 28.8698 8.01719 28.3091 8.59565C27.7483 9.17412 26.9687 9.46262 25.97 9.46262C25.0143 9.46262 24.2761 9.19631 23.7553 8.66223C23.233 8.12815 22.9727 7.40617 22.9727 6.49482C22.9727 5.54501 23.2538 4.79345 23.8174 4.24013C24.3796 3.68681 25.1578 3.41016 26.152 3.41016C27.1077 3.41016 27.846 3.66906 28.3668 4.18687C28.8875 4.70468 29.1494 5.4089 29.1494 6.30398ZM24.3559 6.35724C24.3559 7.23603 24.5039 7.90771 24.8013 8.37226C25.0972 8.83829 25.5321 9.07056 26.1061 9.07056C26.6713 9.07056 27.09 8.859 27.3592 8.43587C27.63 8.01275 27.7646 7.34847 27.7646 6.44304C27.7646 5.59236 27.6211 4.93844 27.3371 4.48128C27.0515 4.02413 26.6092 3.79629 26.0115 3.79629C25.4315 3.79629 25.0113 4.00786 24.7495 4.43246C24.4876 4.85707 24.3559 5.49915 24.3559 6.35724Z" fill="white"/>
<path d="M35.4917 3.54445C35.8705 3.5548 36.2122 3.56072 36.517 3.56072C36.7892 3.56072 37.1088 3.5548 37.4772 3.54445L37.5023 3.75453L36.9387 3.91579C36.875 3.93503 36.8425 3.98089 36.8395 4.0519C36.8336 4.2324 36.8307 4.46171 36.8307 4.73541V8.01685C36.8307 8.34085 36.8336 8.61455 36.8395 8.83647C36.8425 8.90008 36.8795 8.94151 36.9505 8.9637L37.4861 9.11609L37.5023 9.32173C37.1103 9.31285 36.6753 9.30989 36.1974 9.30989C35.7329 9.30989 35.3453 9.31433 35.0316 9.32173L35.0109 9.11609L35.4843 8.97258C35.5509 8.95334 35.585 8.90452 35.5879 8.82463C35.5953 8.61011 35.5997 8.34085 35.5997 8.01685V5.38046C35.5997 5.23843 35.6042 4.96473 35.6116 4.56084C35.5184 4.79755 35.4193 5.04166 35.3157 5.29317L33.6765 9.30841L33.3051 9.34096L31.7398 5.44111C31.6466 5.21919 31.5505 4.97065 31.4513 4.69547C31.4573 5.08456 31.4587 5.34199 31.4587 5.46478V8.01389C31.4587 8.33789 31.4617 8.60715 31.4676 8.82167C31.4706 8.90156 31.5061 8.95039 31.5741 8.96962L32.0269 9.11313L32.0387 9.31877C31.7147 9.30989 31.4336 9.30693 31.1939 9.30693C30.9572 9.30693 30.6495 9.31137 30.2678 9.31877L30.2471 9.11313L30.7989 8.96074C30.8699 8.93855 30.9069 8.89565 30.9099 8.83351C30.9158 8.61159 30.9187 8.33789 30.9187 8.01389V4.73393C30.9187 4.46023 30.9158 4.23092 30.9099 4.05042C30.9069 3.97941 30.8744 3.93355 30.8107 3.91431L30.2589 3.75305L30.2471 3.54297C30.7027 3.55332 31.0445 3.55924 31.2723 3.55924C31.586 3.55924 31.9055 3.55332 32.231 3.54297L33.6676 7.1706C33.7312 7.32742 33.7874 7.47537 33.8362 7.61591C33.891 7.47537 33.9487 7.32742 34.0093 7.1706L35.4917 3.54445Z" fill="white"/>
<path d="M40.5457 8.01537C40.5457 8.17959 40.5457 8.33049 40.5472 8.46364C40.5487 8.59828 40.5501 8.71959 40.5531 8.82611C40.556 8.89713 40.6019 8.94595 40.6936 8.96962L41.1996 9.11313L41.2114 9.31877C40.8297 9.30989 40.4066 9.30693 39.9436 9.30693C39.4627 9.30693 39.0352 9.31137 38.6594 9.31877L38.6387 9.11313L39.1905 8.96074C39.2586 8.94151 39.2956 8.8986 39.3015 8.83351C39.3044 8.72403 39.3059 8.60123 39.3074 8.46512C39.3089 8.32901 39.3089 8.17959 39.3089 8.01389V4.73393C39.3089 4.59634 39.3089 4.47207 39.3074 4.35963C39.3059 4.24719 39.3044 4.14363 39.3015 4.05042C39.2985 3.97941 39.266 3.93355 39.2023 3.91431L38.6505 3.75305L38.6387 3.54297C39.0204 3.55332 39.4435 3.55924 39.9066 3.55924C40.3844 3.55924 40.812 3.55332 41.1907 3.54297L41.2114 3.75305L40.6596 3.90544C40.593 3.92171 40.5575 3.96313 40.5531 4.02823C40.5501 4.12735 40.5487 4.23388 40.5472 4.34779C40.5457 4.46171 40.5457 4.58451 40.5457 4.71618V8.01537Z" fill="white"/>
<path d="M43.4701 8.81871C43.473 8.8986 43.507 8.94595 43.5736 8.96222L44.1003 9.10573L44.1121 9.32025C43.7423 9.31137 43.4375 9.30841 43.1978 9.30841C42.9611 9.30841 42.6534 9.31285 42.2717 9.32025L42.251 9.11461L42.8028 8.96222C42.8738 8.94003 42.9108 8.89713 42.9138 8.83499C42.9197 8.61307 42.9212 8.33937 42.9212 8.01537V4.73393C42.9212 4.46023 42.9182 4.23092 42.9138 4.05042C42.9108 3.97941 42.8783 3.93355 42.8147 3.91431L42.2628 3.75305L42.251 3.54297C42.6356 3.55332 42.93 3.55924 43.1357 3.55924C43.405 3.55924 43.6594 3.55332 43.9021 3.54297L46.6405 6.97235C46.75 7.10994 46.8624 7.25493 46.9778 7.40879C46.9719 7.21942 46.969 7.03745 46.969 6.86139V4.71618C46.969 4.44988 46.966 4.22056 46.9601 4.02823C46.9571 3.96461 46.9216 3.92319 46.8536 3.90544L46.3269 3.76193L46.315 3.54297C46.6938 3.55332 47.0015 3.55924 47.2367 3.55924C47.4779 3.55924 47.7841 3.55332 48.1555 3.54297L48.1762 3.75305L47.6155 3.91431C47.5519 3.93355 47.5193 3.97941 47.5164 4.05042C47.509 4.23092 47.5045 4.46023 47.5045 4.73393V9.30841L47.0311 9.35428L43.7867 5.29021C43.6905 5.16741 43.5795 5.01947 43.4538 4.84933C43.4597 5.05202 43.4627 5.23843 43.4627 5.41004V8.01685C43.4627 8.33937 43.4656 8.60715 43.4701 8.81871Z" fill="white"/>
<path d="M53.8575 5.06627L53.6267 5.09881L53.3382 3.96259C53.1074 3.88862 52.8382 3.85163 52.5304 3.85163C51.915 3.85163 51.4356 4.07947 51.0909 4.53662C50.7462 4.99377 50.5746 5.62106 50.5746 6.41997C50.5746 7.25438 50.7477 7.90534 51.0939 8.37137C51.4401 8.8374 51.9238 9.07116 52.5467 9.07116C52.6946 9.07116 52.8544 9.05932 53.0246 9.03417V7.95121C53.0246 7.81362 53.0246 7.68934 53.0231 7.5769C53.0216 7.46447 53.0201 7.3609 53.0172 7.2677C53.0142 7.19668 52.9802 7.15082 52.9136 7.13159L52.3529 6.97033L52.3411 6.76468C52.7302 6.77356 53.1533 6.77652 53.6089 6.77652C54.0779 6.77652 54.4804 6.77208 54.8162 6.76468L54.8413 6.97033L54.3516 7.10644C54.2851 7.12567 54.2496 7.1671 54.2451 7.22923C54.2422 7.33871 54.2407 7.45115 54.2392 7.56507C54.2377 7.67899 54.2377 7.80178 54.2377 7.93345V9.23094L54.2096 9.25905C53.6193 9.39368 53.0586 9.46025 52.526 9.46025C51.5274 9.46025 50.7225 9.20431 50.1145 8.69389C49.5064 8.18348 49.2031 7.47038 49.2031 6.55756C49.2031 5.58556 49.5064 4.82511 50.1145 4.27476C50.7225 3.7244 51.5525 3.44922 52.6029 3.44922C53.1074 3.44922 53.6045 3.50544 54.0942 3.61788L54.1223 3.65486L53.8575 5.06627Z" fill="white"/>
<path d="M26.1 14.0571C25.924 13.989 25.7331 13.9535 25.5275 13.9535C25.236 13.9535 24.9904 14.0393 24.7878 14.2094C24.5865 14.3796 24.4845 14.5985 24.4845 14.8678C24.4845 15.0305 24.517 15.1681 24.5836 15.2835C24.6502 15.3989 24.7375 15.5025 24.8469 15.5927C24.9564 15.683 25.0822 15.7643 25.2242 15.8354C25.3662 15.9064 25.5112 15.9774 25.6621 16.0499C25.8293 16.1298 25.9979 16.2171 26.1681 16.3117C26.3382 16.4064 26.4906 16.5189 26.6252 16.6491C26.7599 16.7793 26.8693 16.9346 26.9522 17.1166C27.0365 17.2971 27.078 17.5175 27.078 17.7749C27.078 18.3327 26.8679 18.7706 26.4477 19.0887C26.0275 19.4068 25.4727 19.5666 24.7848 19.5666C24.2877 19.5666 23.798 19.4881 23.3142 19.3313L23.2891 19.2943L23.508 17.8119L23.7625 17.7705L24.0717 19.031C24.2699 19.1212 24.4889 19.1671 24.7301 19.1671C25.0792 19.1671 25.3588 19.0783 25.5719 18.9023C25.7849 18.7247 25.8914 18.488 25.8914 18.1921C25.8914 18.025 25.8589 17.8829 25.7923 17.7661C25.7257 17.6492 25.637 17.5456 25.5245 17.4524C25.4121 17.3592 25.2848 17.2793 25.1413 17.2068C24.9993 17.1358 24.8499 17.0648 24.696 16.9923C24.5288 16.9094 24.3617 16.8236 24.193 16.7334C24.0244 16.6431 23.8764 16.5337 23.7447 16.4035C23.6131 16.2748 23.5065 16.1194 23.4237 15.9404C23.3408 15.7614 23.2994 15.5424 23.2994 15.288C23.2994 14.7642 23.4991 14.347 23.9001 14.0363C24.301 13.7257 24.8203 13.5703 25.4609 13.5703C25.8678 13.5703 26.3293 13.6339 26.8486 13.7597L26.8738 13.7967L26.6223 15.1223L26.3959 15.1592L26.1 14.0571Z" fill="white"/>
<path d="M34.373 16.4251C34.373 17.3749 34.0934 18.1383 33.5327 18.7167C32.972 19.2952 32.1923 19.5837 31.1937 19.5837C30.2379 19.5837 29.4997 19.3174 28.9789 18.7833C28.4567 18.2492 28.1963 17.5273 28.1963 16.6159C28.1963 15.6661 28.4774 14.9145 29.0411 14.3612C29.6033 13.8079 30.3814 13.5312 31.3756 13.5312C32.3314 13.5312 33.0696 13.7902 33.5904 14.308C34.1112 14.8258 34.373 15.53 34.373 16.4251ZM29.5811 16.4783C29.5811 17.3571 29.729 18.0288 30.0264 18.4934C30.3223 18.9594 30.7572 19.1917 31.3313 19.1917C31.8964 19.1917 32.3151 18.9801 32.5844 18.557C32.8551 18.1338 32.9897 17.4696 32.9897 16.5641C32.9897 15.7134 32.8462 15.0595 32.5622 14.6024C32.2766 14.1452 31.8343 13.9174 31.2366 13.9174C30.6566 13.9174 30.2365 14.129 29.9746 14.5536C29.7113 14.9782 29.5811 15.6202 29.5811 16.4783Z" fill="white"/>
<path d="M41.7832 16.4251C41.7832 17.3749 41.5036 18.1383 40.9428 18.7167C40.3821 19.2952 39.6025 19.5837 38.6038 19.5837C37.6481 19.5837 36.9098 19.3174 36.3891 18.7833C35.8668 18.2492 35.6064 17.5273 35.6064 16.6159C35.6064 15.6661 35.8875 14.9145 36.4512 14.3612C37.0134 13.8079 37.7916 13.5312 38.7858 13.5312C39.7415 13.5312 40.4798 13.7902 41.0005 14.308C41.5213 14.8258 41.7832 15.53 41.7832 16.4251ZM36.9897 16.4783C36.9897 17.3571 37.1377 18.0288 37.4351 18.4934C37.7309 18.9594 38.1659 19.1917 38.7399 19.1917C39.3051 19.1917 39.7238 18.9801 39.993 18.557C40.2638 18.1338 40.3984 17.4696 40.3984 16.5641C40.3984 15.7134 40.2549 15.0595 39.9708 14.6024C39.6853 14.1452 39.243 13.9174 38.6452 13.9174C38.0653 13.9174 37.6451 14.129 37.3833 14.5536C37.1214 14.9782 36.9897 15.6202 36.9897 16.4783Z" fill="white"/>
<path d="M44.0824 18.9398C44.0853 19.0197 44.1193 19.067 44.1859 19.0833L44.7126 19.2268L44.7244 19.4413C44.3546 19.4325 44.0498 19.4295 43.8101 19.4295C43.5734 19.4295 43.2657 19.4339 42.884 19.4413L42.8633 19.2357L43.4151 19.0833C43.4861 19.0611 43.5231 19.0182 43.5261 18.9561C43.532 18.7342 43.5335 18.4605 43.5335 18.1365V14.855C43.5335 14.5813 43.5305 14.352 43.5261 14.1715C43.5231 14.1005 43.4906 14.0546 43.427 14.0354L42.8751 13.8741L42.8633 13.6641C43.2479 13.6744 43.5424 13.6803 43.748 13.6803C44.0173 13.6803 44.2717 13.6744 44.5144 13.6641L47.2528 17.0934C47.3623 17.231 47.4748 17.376 47.5901 17.5299C47.5842 17.3405 47.5813 17.1585 47.5813 16.9825V14.8373C47.5813 14.571 47.5783 14.3417 47.5724 14.1493C47.5694 14.0857 47.5339 14.0443 47.4659 14.0265L46.9392 13.883L46.9274 13.6641C47.3061 13.6744 47.6138 13.6803 47.8491 13.6803C48.0902 13.6803 48.3965 13.6744 48.7678 13.6641L48.7885 13.8741L48.2278 14.0354C48.1642 14.0546 48.1316 14.1005 48.1287 14.1715C48.1213 14.352 48.1168 14.5813 48.1168 14.855V19.4295L47.6434 19.4754L44.399 15.4113C44.3028 15.2885 44.1918 15.1406 44.0661 14.9704C44.072 15.1731 44.075 15.3595 44.075 15.5311V18.1379C44.0735 18.4605 44.0764 18.7282 44.0824 18.9398Z" fill="white"/>
<path d="M71.426 1.15001L70.2633 11.9689H70.2677L69.6826 17.4389L39.1728 25.1053L5.03142 17.4403L4.44637 11.9704H4.4508V11.9645L3.28809 1.15001C3.45456 0.698933 3.75637 0.964359 3.89825 1.13673L5.00926 11.7255V11.7314H5.00483L5.57954 16.9594L39.0812 24.2851L69.0178 16.9594L69.5925 11.7314H69.5881L70.7286 1.11755C71.1092 0.727322 71.2759 0.93516 71.426 1.15001Z" fill="white"/>
<defs>
<linearGradient id="paint0_linear_2335_197661" x1="0.000983859" y1="5.97701" x2="3.88603" y2="5.97701" gradientUnits="userSpaceOnUse">
<stop stop-color="#F6830F"/>
<stop offset="0.1072" stop-color="#DB740D"/>
<stop offset="0.2309" stop-color="#D57514"/>
<stop offset="0.3628" stop-color="#B8630D"/>
<stop offset="0.5006" stop-color="#9E5206"/>
<stop offset="0.6428" stop-color="#7C4206"/>
<stop offset="0.7889" stop-color="#673B0E"/>
<stop offset="0.9353" stop-color="#3D2106"/>
<stop offset="1"/>
</linearGradient>
</defs>
</svg>
