<svg width="47" height="35" viewBox="0 0 47 35" fill="none" xmlns="http://www.w3.org/2000/svg">
<path d="M46.4744 6.07109H38.924C38.9048 2.70893 40.6147 0 42.6896 0C44.7837 0 46.4744 2.70893 46.4744 6.07109Z" fill="#890303"/>
<path d="M17.3104 34.1787L1.07605 19.635C0.384406 19.0202 0.000160334 18.1556 0.000160334 17.2334V6.07109C-0.019052 2.70893 1.69084 0 3.78498 0H42.7091C40.615 0 38.9243 2.70893 38.9243 6.07109V17.2334C38.9243 18.1556 38.54 19.0202 37.8484 19.635L21.614 34.1787C20.3844 35.2738 18.54 35.2738 17.3104 34.1787ZM20.5573 32.1614L36.3114 17.9443C36.6764 17.6177 36.8878 17.1374 36.8878 16.6378V5.76369C36.8878 5.39866 36.5804 5.09126 36.2153 5.09126C35.8503 5.09126 35.5429 5.39866 35.5429 5.76369V16.6378C35.5429 16.7531 35.4853 16.8684 35.4084 16.9452L19.6543 31.1623C19.5006 31.2968 19.2701 31.2968 19.1164 31.1623L3.8042 16.8492C3.72735 16.7723 3.66971 16.6571 3.66971 16.561V6.07109C3.66971 5.70605 3.36231 5.39866 2.99728 5.39866C2.63225 5.39866 2.32485 5.70605 2.32485 6.07109V16.561C2.32485 17.0413 2.53618 17.5216 2.88201 17.8482L18.175 32.1422C18.8474 32.7762 19.8657 32.7762 20.5573 32.1614Z" fill="#D80303"/>
<path d="M11.9698 14.967C11.8161 14.967 11.7008 14.9285 11.6047 14.8517C11.5087 14.7748 11.4511 14.7172 11.4318 14.6788L8.47314 10.2599V14.6211C8.47314 14.7172 8.43472 14.7941 8.37708 14.8709C8.30023 14.9477 8.22338 14.967 8.12732 14.967H6.43664C6.34058 14.967 6.26373 14.9285 6.18688 14.8709C6.11003 14.7941 6.09082 14.7172 6.09082 14.6211V6.26379C6.09082 6.16773 6.12924 6.09088 6.18688 6.01403C6.26373 5.93718 6.34058 5.91797 6.43664 5.91797H7.7815C7.9352 5.91797 8.05047 5.95639 8.14654 6.03324C8.2426 6.11009 8.30023 6.16773 8.31945 6.20615L11.2781 10.625V6.26379C11.2781 6.16773 11.3166 6.09088 11.3742 6.01403C11.4511 5.93718 11.5279 5.91797 11.624 5.91797H13.3146C13.4107 5.91797 13.4876 5.95639 13.5644 6.01403C13.6413 6.09088 13.6605 6.16773 13.6605 6.26379V14.6211C13.6605 14.7172 13.622 14.7941 13.5644 14.8709C13.4876 14.9477 13.4107 14.967 13.3146 14.967H11.9698Z" fill="white"/>
<path d="M21.9413 12.892C22.0374 12.892 22.1143 12.9305 22.1911 12.9881C22.268 13.0649 22.2872 13.1418 22.2872 13.2379V14.6019C22.2872 14.698 22.2487 14.7748 22.1911 14.8517C22.1143 14.9285 22.0374 14.9477 21.9413 14.9477H15.8126C15.7166 14.9477 15.6397 14.9093 15.5629 14.8517C15.486 14.7748 15.4668 14.698 15.4668 14.6019V6.26379C15.4668 6.16773 15.5052 6.09088 15.5629 6.01403C15.6397 5.93718 15.7166 5.91797 15.8126 5.91797H21.8453C21.9413 5.91797 22.0182 5.95639 22.095 6.01403C22.1719 6.09088 22.1911 6.16773 22.1911 6.26379V7.62786C22.1911 7.72392 22.1527 7.80077 22.095 7.87762C22.0182 7.95447 21.9413 7.97368 21.8453 7.97368H17.8683V9.37618H21.5571C21.6532 9.37618 21.73 9.41461 21.8069 9.47224C21.8837 9.54909 21.9029 9.62594 21.9029 9.722V11.0861C21.9029 11.1821 21.8645 11.259 21.8069 11.3358C21.73 11.4127 21.6532 11.4319 21.5571 11.4319H17.8683V12.8728H21.9413V12.892Z" fill="white"/>
<path d="M30.0681 10.6445L30.8942 6.28332C30.9134 6.14884 30.9711 6.07199 31.0479 6.01435C31.1248 5.95671 31.2016 5.9375 31.2977 5.9375H32.9884C33.0652 5.9375 33.1421 5.95671 33.1805 6.01435C33.2381 6.07199 33.2573 6.12962 33.2573 6.20647C33.2573 6.22568 33.2573 6.26411 33.2381 6.30253L31.5667 14.4678C31.5474 14.583 31.4898 14.6983 31.3553 14.7944C31.24 14.8904 31.0863 14.9481 30.9134 14.9481H29.8375C29.6646 14.9481 29.5301 14.8904 29.4149 14.7944C29.2996 14.6983 29.2228 14.583 29.1843 14.4678L28.2237 11.5475L27.2631 14.4678C27.2247 14.583 27.1478 14.6983 27.0325 14.7944C26.9173 14.8904 26.7828 14.9481 26.6099 14.9481H25.534C25.3611 14.9481 25.2074 14.8904 25.0921 14.7944C24.9768 14.6983 24.9 14.583 24.8808 14.4678L23.2477 6.30253C23.2477 6.26411 23.2285 6.22568 23.2285 6.20647C23.2285 6.12962 23.2477 6.05277 23.3054 6.01435C23.363 5.95671 23.4206 5.9375 23.4975 5.9375H25.1882C25.265 5.9375 25.3611 5.95671 25.4379 6.01435C25.5148 6.07199 25.5724 6.14884 25.5916 6.28332L26.4178 10.6445L27.1862 8.30061C27.2055 8.24298 27.2439 8.16613 27.3015 8.07007C27.3592 7.974 27.4744 7.93558 27.6281 7.93558H28.8385C28.9922 7.93558 29.1075 7.974 29.1651 8.07007C29.2228 8.16613 29.2612 8.24298 29.2804 8.30061L30.0681 10.6445Z" fill="white"/>
</svg>
