<svg width="24" height="24" viewBox="0 0 24 24" fill="none" xmlns="http://www.w3.org/2000/svg">
<g opacity="0.5">
<path d="M11.5 2C6.3 2 2 6.3 2 11.5C2 16.7 6.3 21 11.5 21C16.7 21 21 16.8 21 11.5C21 6.2 16.8 2 11.5 2ZM11.5 19.5C7.1 19.5 3.5 15.9 3.5 11.5C3.5 7.1 7.1 3.5 11.5 3.5C15.9 3.5 19.5 7.1 19.5 11.5C19.5 15.9 15.9 19.5 11.5 19.5Z" fill="#343A40"/>
<path d="M21.2998 22C21.0998 22 20.8998 21.9 20.7998 21.8L18.8998 19.9C18.5998 19.6 18.5998 19.2 18.8998 18.9C19.1998 18.6 19.5998 18.6 19.8998 18.9L21.7998 20.8C22.0998 21.1 22.0998 21.5 21.7998 21.8C21.6998 21.9 21.4998 22 21.2998 22Z" fill="#343A40"/>
</g>
</svg>
