<svg width="32" height="32" viewBox="0 0 32 32" fill="none" xmlns="http://www.w3.org/2000/svg">
<path d="M21.588 2.66797H10.4146C5.5613 2.66797 2.66797 5.5613 2.66797 10.4146V21.5746C2.66797 26.4413 5.5613 29.3346 10.4146 29.3346H21.5746C26.428 29.3346 29.3213 26.4413 29.3213 21.588V10.4146C29.3346 5.5613 26.4413 2.66797 21.588 2.66797ZM21.3346 17.0013H17.0013V21.3346C17.0013 21.8813 16.548 22.3346 16.0013 22.3346C15.4546 22.3346 15.0013 21.8813 15.0013 21.3346V17.0013H10.668C10.1213 17.0013 9.66797 16.548 9.66797 16.0013C9.66797 15.4546 10.1213 15.0013 10.668 15.0013H15.0013V10.668C15.0013 10.1213 15.4546 9.66797 16.0013 9.66797C16.548 9.66797 17.0013 10.1213 17.0013 10.668V15.0013H21.3346C21.8813 15.0013 22.3346 15.4546 22.3346 16.0013C22.3346 16.548 21.8813 17.0013 21.3346 17.0013Z" fill="#34BC85"/>
</svg>
