<svg width="28" height="27" viewBox="0 0 28 27" fill="none" xmlns="http://www.w3.org/2000/svg">
<path d="M21.8601 1.22997C21.8601 3.61497 19.9101 5.56497 17.5251 5.56497H10.4751C8.09006 5.56497 6.14006 3.61497 6.14006 1.22997C6.14006 0.38997 5.24006 -0.13503 4.49006 0.25497C2.37506 1.37997 0.935059 3.61497 0.935059 6.17997V20.295C0.935059 23.985 3.95006 27 7.64006 27H20.3601C24.0501 27 27.0651 23.985 27.0651 20.295V6.17997C27.0651 3.61497 25.6251 1.37997 23.5101 0.25497C22.7601 -0.13503 21.8601 0.38997 21.8601 1.22997ZM19.0101 13.095L13.0101 19.095C12.7851 19.32 12.5001 19.425 12.2151 19.425C11.9301 19.425 11.6451 19.32 11.4201 19.095L9.17006 16.845C8.73506 16.41 8.73506 15.69 9.17006 15.255C9.60506 14.82 10.3251 14.82 10.7601 15.255L12.2151 16.71L17.4201 11.505C17.8551 11.07 18.5751 11.07 19.0101 11.505C19.4451 11.94 19.4451 12.66 19.0101 13.095Z" fill="#1B959F"/>
</svg>
