<svg width="24" height="24" viewBox="0 0 24 24" fill="none" xmlns="http://www.w3.org/2000/svg">
<g clip-path="url(#clip0_7790_213584)">
<path d="M17.8657 8.07237V10.062C17.3944 10.0007 16.9197 9.96901 16.4445 9.9673V8.07237C16.4445 5.09216 15.5832 3.10249 11.4746 3.10249C7.36606 3.10249 6.50473 5.10939 6.50473 8.07237V9.9673C6.0381 9.97008 5.5721 10.0017 5.10938 10.062V8.07237C5.10938 5.32472 5.74676 1.66406 11.4746 1.66406C17.2025 1.66406 17.8657 5.32472 17.8657 8.07237Z" fill="#0F5156"/>
<path d="M17.8652 10.0635C17.394 10.0021 16.9193 9.97046 16.444 9.96875H6.50427C6.03765 9.97154 5.57164 10.0032 5.10892 10.0635C2.66274 10.3563 1.99951 11.5364 1.99951 14.7061V16.601C1.99951 20.3822 2.94698 21.3297 6.73683 21.3297H13.6275C12.8527 20.4046 12.4261 19.2375 12.4216 18.0308C12.4351 16.6643 12.9839 15.3577 13.9502 14.3914C14.9165 13.4251 16.2231 12.8763 17.5896 12.8628C18.7901 12.8621 19.9535 13.2793 20.8799 14.0428C20.8282 11.3641 20.0961 10.3391 17.8652 10.0635ZM8.35614 16.3081C8.17333 16.4789 7.93438 16.577 7.6843 16.5838C7.56019 16.5787 7.43785 16.5524 7.32254 16.5063C7.20842 16.4588 7.10347 16.3918 7.01246 16.3081C6.88531 16.1755 6.80028 16.0082 6.76809 15.8274C6.7359 15.6465 6.758 15.4601 6.83158 15.2918C6.88112 15.1788 6.94796 15.0741 7.02969 14.9817C7.12035 14.8954 7.22526 14.8255 7.33977 14.775C7.51335 14.7043 7.70386 14.6863 7.88763 14.723C8.07139 14.7598 8.2403 14.8497 8.37336 14.9817C8.45803 15.0719 8.5252 15.177 8.57147 15.2918C8.62321 15.4053 8.64966 15.5288 8.64899 15.6535C8.63574 15.9005 8.5314 16.1337 8.35614 16.3081ZM12.3441 15.9895C12.3 16.1078 12.2326 16.2162 12.146 16.3081C11.9632 16.4789 11.7242 16.577 11.4742 16.5838C11.2237 16.5786 10.9842 16.4803 10.8023 16.3081C10.7157 16.2162 10.6483 16.1078 10.6042 15.9895C10.5537 15.8786 10.5273 15.7582 10.5267 15.6363C10.5262 15.5117 10.5503 15.3882 10.5976 15.2729C10.6449 15.1577 10.7145 15.0528 10.8023 14.9645C10.9843 14.7937 11.2246 14.6987 11.4742 14.6987C11.7237 14.6987 11.964 14.7937 12.146 14.9645C12.2339 15.0528 12.3034 15.1577 12.3507 15.2729C12.398 15.3882 12.4221 15.5117 12.4216 15.6363C12.4236 15.764 12.3971 15.8905 12.3441 16.0067V15.9895Z" fill="#0F5156"/>
<path d="M17.7361 13.8008C16.8914 13.8008 16.0657 14.0518 15.3638 14.5218C14.662 14.9918 14.1155 15.6597 13.7939 16.4408C13.4722 17.2219 13.3898 18.0809 13.5571 18.9089C13.7245 19.7369 14.134 20.4965 14.7337 21.0914C15.3334 21.6863 16.0963 22.0896 16.9256 22.2502C17.755 22.4108 18.6133 22.3214 19.3917 21.9934C20.1702 21.6655 20.8336 21.1136 21.298 20.408C21.7623 19.7023 22.0065 18.8746 21.9997 18.0299C21.9906 16.9051 21.5374 15.8295 20.7388 15.0374C19.9402 14.2452 18.8609 13.8007 17.7361 13.8008ZM15.445 17.7285C15.5094 17.23 15.7364 16.7668 16.091 16.4106C16.4984 16.005 17.0417 15.7647 17.6159 15.736C18.1901 15.7074 18.7546 15.8925 19.2004 16.2556V15.8507C19.2004 15.7662 19.2339 15.6852 19.2937 15.6254C19.3535 15.5656 19.4345 15.5321 19.5191 15.5321C19.6036 15.5321 19.6846 15.5656 19.7444 15.6254C19.8042 15.6852 19.8378 15.7662 19.8378 15.8507V16.9877C19.8378 17.0722 19.8042 17.1533 19.7444 17.2131C19.6846 17.2728 19.6036 17.3064 19.5191 17.3064H18.3735C18.289 17.3064 18.2079 17.2728 18.1481 17.2131C18.0884 17.1533 18.0548 17.0722 18.0548 16.9877C18.057 16.9039 18.0913 16.8241 18.1506 16.7648C18.2099 16.7055 18.2897 16.6712 18.3735 16.669H18.6922C18.3647 16.4479 17.9712 16.346 17.5776 16.3805C17.184 16.415 16.8142 16.5838 16.5302 16.8585C16.2773 17.124 16.112 17.4607 16.0565 17.8232C16.0461 17.8978 16.0088 17.966 15.9518 18.0151C15.8947 18.0642 15.8217 18.0909 15.7464 18.0902H15.6948C15.6146 18.0735 15.544 18.0266 15.4975 17.9593C15.451 17.8919 15.4322 17.8093 15.445 17.7285ZM19.3813 19.7526C18.9748 20.16 18.4312 20.4015 17.8565 20.4302C17.2817 20.4588 16.7168 20.2725 16.2718 19.9076V20.3038C16.2718 20.3884 16.2383 20.4694 16.1785 20.5292C16.1187 20.589 16.0377 20.6225 15.9532 20.6225C15.8686 20.6225 15.7876 20.589 15.7278 20.5292C15.668 20.4694 15.6345 20.3884 15.6345 20.3038V19.1238C15.6366 19.04 15.6709 18.9602 15.7302 18.9009C15.7895 18.8416 15.8693 18.8073 15.9532 18.8051H17.0901C17.1746 18.8051 17.2557 18.8387 17.3155 18.8985C17.3752 18.9582 17.4088 19.0393 17.4088 19.1238C17.4088 19.2083 17.3752 19.2894 17.3155 19.3492C17.2557 19.4089 17.1746 19.4425 17.0901 19.4425H16.7714C17.0989 19.6636 17.4924 19.7655 17.886 19.731C18.2796 19.6965 18.6494 19.5277 18.9334 19.253C19.1861 18.9908 19.3516 18.6569 19.4071 18.2969C19.4199 18.217 19.4626 18.1449 19.5266 18.0953C19.5906 18.0457 19.671 18.0223 19.7516 18.0299C19.8349 18.0427 19.9098 18.0879 19.9598 18.1557C20.0098 18.2235 20.031 18.3083 20.0186 18.3917C19.9652 18.9041 19.7407 19.3835 19.3813 19.7526Z" fill="#0F5156"/>
</g>
<defs>
<clipPath id="clip0_7790_213584">
<rect width="24" height="24" fill="white"/>
</clipPath>
</defs>
</svg>
