<svg width="9" height="12" viewBox="0 0 9 12" fill="none" xmlns="http://www.w3.org/2000/svg">
<path opacity="0.5" d="M0.864 12V10.362C1.404 10.122 1.854 9.762 2.214 9.282C2.586 8.802 2.772 8.244 2.772 7.608C2.772 7.524 2.766 7.446 2.754 7.374C2.754 7.29 2.748 7.206 2.736 7.122H0.936V5.574L2.16 5.484H2.268C2.184 5.244 2.112 5.004 2.052 4.764C2.004 4.512 1.98 4.272 1.98 4.044C1.98 3.288 2.142 2.634 2.466 2.082C2.802 1.53 3.258 1.104 3.834 0.803999C4.422 0.504 5.088 0.354 5.832 0.354C6.504 0.354 7.086 0.48 7.578 0.731999C8.082 0.983999 8.538 1.344 8.946 1.812L7.506 3.252C7.302 3 7.086 2.814 6.858 2.694C6.63 2.562 6.372 2.496 6.084 2.496C5.604 2.496 5.22 2.634 4.932 2.91C4.656 3.186 4.518 3.612 4.518 4.188C4.518 4.404 4.536 4.62 4.572 4.836C4.62 5.052 4.668 5.268 4.716 5.484H7.38V7.122H5.058C5.07 7.206 5.076 7.29 5.076 7.374C5.088 7.446 5.094 7.53 5.094 7.626C5.094 8.058 5.028 8.43 4.896 8.742C4.776 9.054 4.572 9.372 4.284 9.696V9.768H8.946V12H0.864Z" fill="#343A40"/>
</svg>
