<svg width="20" height="20" viewBox="0 0 20 20" fill="none" xmlns="http://www.w3.org/2000/svg">
<path d="M9.52929 0.860732C9.68913 0.379756 10.3109 0.379756 10.4707 0.860732L12.2378 6.17839C12.4382 6.78148 12.9851 7.20977 13.6264 7.22344L19.0073 7.33814C19.2318 7.34293 19.4026 7.48706 19.4718 7.70963C19.5413 7.93345 19.4856 8.17314 19.2914 8.32712L15.0027 11.7283C14.505 12.123 14.304 12.7886 14.4798 13.3962L16.0383 18.7848C16.114 19.0467 16.0136 19.2707 15.8464 19.3977C15.6824 19.5223 15.4745 19.5429 15.2835 19.4039L10.8658 16.1883C10.3469 15.8105 9.65313 15.8105 9.13419 16.1883L4.71652 19.4039C4.52554 19.5429 4.31758 19.5223 4.15357 19.3977C3.98642 19.2707 3.88598 19.0467 3.96173 18.7848L5.52022 13.3962C5.69595 12.7886 5.49499 12.123 4.99735 11.7283L0.70858 8.32712C0.51442 8.17314 0.458727 7.93345 0.52825 7.70963C0.597384 7.48706 0.768232 7.34293 0.992714 7.33814L6.37359 7.22344C7.01494 7.20977 7.56182 6.78148 7.76223 6.17838L9.52929 0.860732Z" fill="url(#paint0_linear_2204_194165)" stroke="#E2AD00"/>
<defs>
<linearGradient id="paint0_linear_2204_194165" x1="10" y1="0" x2="10" y2="42.25" gradientUnits="userSpaceOnUse">
<stop stop-color="#FFC816"/>
<stop offset="1" stop-color="#E2AD00"/>
</linearGradient>
</defs>
</svg>
