<svg width="20" height="20" viewBox="0 0 20 20" fill="none" xmlns="http://www.w3.org/2000/svg">
<path d="M20 3.68693C20 1.72403 18.5916 0.228486 16.6198 0.0415429C16.0564 -0.0519286 15.493 0.0415429 15.0235 0.0415429C11.2676 0.0415429 7.51178 0.0415429 3.84981 0.0415429C3.56812 0.0415429 3.45508 0.0415429 3.09961 0.144409C3.09961 0.144409 3.38032 0.415429 3.56812 0.508901C4.78877 1.25667 5.44605 2.28486 5.44605 3.68693C5.44605 5.93025 5.44605 8.17357 5.44605 10.4169C5.44605 13.221 5.44605 16.0252 5.44605 18.8293C5.44605 19.0163 5.44605 19.2967 5.53995 19.4836C5.82164 20.0445 6.47891 20.0445 6.9484 19.6706C7.60568 19.1097 8.16906 18.6424 8.82633 18.0816C9.01413 17.8946 9.29582 17.7077 9.48361 17.5207C9.57751 17.5207 9.57751 17.6142 9.57751 17.6142C10.3287 18.2685 11.1738 19.0163 11.9249 19.6706C12.3944 20.0445 12.77 20.0445 13.2395 19.6706C13.9907 19.0163 14.8357 18.362 15.5869 17.6142C15.6808 17.6142 15.6808 17.5207 15.7747 17.5207C15.9625 17.7077 16.1503 17.8946 16.432 18.0816C17.0892 18.6424 17.7465 19.2032 18.4038 19.764C18.8733 20.2314 19.6245 19.951 19.9061 19.3902C20 19.2032 20 19.1097 20 18.9228C20 14.5296 20 10.1365 20 5.74331C20 4.99554 20 4.34123 20 3.68693ZM9.29582 3.96735C9.48361 3.78041 9.7653 3.68693 10.047 3.68693C11.6432 3.68693 13.2395 3.68693 14.8357 3.68693C15.0235 3.68693 15.2113 3.68693 15.493 3.68693C15.9625 3.68693 16.3381 4.06082 16.3381 4.62165C16.3381 5.08901 15.9625 5.55637 15.493 5.55637C14.554 5.55637 13.709 5.55637 12.77 5.55637C11.831 5.55637 10.986 5.55637 10.047 5.55637C9.6714 5.55637 9.38971 5.36942 9.20192 4.99554C9.01413 4.52818 9.01413 4.24776 9.29582 3.96735ZM16.3381 8.17357C16.3381 8.7344 15.9625 9.10828 15.3991 9.10828C13.6151 9.10828 11.831 9.10828 10.047 9.10828C9.48361 9.10828 9.10802 8.7344 9.10802 8.17357C9.10802 7.61274 9.48361 7.23885 10.047 7.23885C10.8921 7.23885 11.831 7.23885 12.6761 7.23885C13.5212 7.23885 14.4601 7.23885 15.3052 7.23885C15.9625 7.33232 16.3381 7.70621 16.3381 8.17357ZM15.3991 12.7537C14.554 12.7537 13.6151 12.7537 12.77 12.7537C11.831 12.7537 10.986 12.7537 10.047 12.7537C9.57751 12.7537 9.29582 12.4733 9.20192 12.0994C9.10802 11.7255 9.29582 11.2581 9.6714 11.0712C9.8592 10.9777 9.95309 10.9777 10.1409 10.9777C11.9249 10.9777 13.709 10.9777 15.493 10.9777C16.0564 10.9777 16.432 11.3516 16.432 11.9124C16.3381 12.3798 15.9625 12.7537 15.3991 12.7537Z" fill="#343A40"/>
<path d="M3.59961 3.14478C3.41182 2.21006 2.53521 1.63086 1.59624 1.63086C0.751174 1.72433 0 2.56558 0 3.40682C0 5.55666 0 7.70651 0 9.94983C0 10.5107 0.375587 10.8845 0.938967 10.8845C1.78404 10.8845 2.62911 10.8845 3.38028 10.8845C3.47418 10.8845 3.50571 10.8845 3.59961 10.8845C3.59961 10.7911 3.59961 10.7035 3.59961 10.6448C3.59961 8.14478 3.59961 5.98156 3.59961 3.64478C3.59961 3.35432 3.59961 3.45193 3.59961 3.14478Z" fill="#343A40"/>
</svg>
