<svg width="24" height="24" viewBox="0 0 24 24" fill="none" xmlns="http://www.w3.org/2000/svg">
<path d="M5.5 13.0703C4.56 13.0703 3.69 13.4003 3 13.9503C2.08 14.6803 1.5 15.8103 1.5 17.0703C1.5 19.2803 3.29 21.0703 5.5 21.0703C6.51 21.0703 7.43 20.6903 8.14 20.0703C8.97 19.3403 9.5 18.2703 9.5 17.0703C9.5 14.8603 7.71 13.0703 5.5 13.0703ZM6.5 17.3203C6.5 17.5803 6.36 17.8303 6.14 17.9603L4.89 18.7103C4.77 18.7903 4.63 18.8203 4.5 18.8203C4.25 18.8203 4 18.6903 3.86 18.4603C3.65 18.1003 3.76 17.6403 4.12 17.4303L5.01 16.9003V15.8203C5.01 15.4103 5.35 15.0703 5.76 15.0703C6.17 15.0703 6.5 15.4103 6.5 15.8203V17.3203Z" fill="#292D32"/>
<path d="M17.75 2H8.25C5.4 2 3.5 3.9 3.5 6.75V11.21C3.5 11.56 3.86 11.81 4.2 11.72C4.62 11.62 5.05 11.57 5.5 11.57C8.36 11.57 10.72 13.89 10.98 16.7C11 16.98 11.23 17.2 11.5 17.2H12.05L16.28 20.02C16.9 20.44 17.75 19.98 17.75 19.22V17.2C19.17 17.2 20.36 16.72 21.19 15.9C22.02 15.06 22.5 13.87 22.5 12.45V6.75C22.5 3.9 20.6 2 17.75 2ZM16.33 10.38H9.67C9.28 10.38 8.96 10.06 8.96 9.67C8.96 9.27 9.28 8.95 9.67 8.95H16.33C16.72 8.95 17.04 9.27 17.04 9.67C17.04 10.06 16.72 10.38 16.33 10.38Z" fill="#292D32"/>
</svg>
