<svg width="24" height="24" viewBox="0 0 24 24" fill="none" xmlns="http://www.w3.org/2000/svg">
<g opacity="0.5">
<path d="M11.5 2C6.3 2 2 6.3 2 11.5C2 16.7 6.3 21 11.5 21C16.7 21 21 16.8 21 11.5C21 6.2 16.8 2 11.5 2ZM11.5 19.5C7.1 19.5 3.5 15.9 3.5 11.5C3.5 7.1 7.1 3.5 11.5 3.5C15.9 3.5 19.5 7.1 19.5 11.5C19.5 15.9 15.9 19.5 11.5 19.5Z" fill="#343A40"/>
<path d="M21.2998 21.9998C21.0998 21.9998 20.8998 21.8998 20.7998 21.7998L18.8998 19.8998C18.5998 19.5998 18.5998 19.1998 18.8998 18.8998C19.1998 18.5998 19.5998 18.5998 19.8998 18.8998L21.7998 20.7998C22.0998 21.0998 22.0998 21.4998 21.7998 21.7998C21.6998 21.8998 21.4998 21.9998 21.2998 21.9998Z" fill="#343A40"/>
</g>
</svg>
