<svg width="24" height="17" viewBox="0 0 24 17" fill="none" xmlns="http://www.w3.org/2000/svg">
<path d="M7.23225 8.5513C9.45739 8.5513 11.2057 6.80297 11.2057 4.57783C11.2057 2.35269 9.45739 0.60437 7.23225 0.60437C5.00711 0.60437 3.25879 2.35269 3.25879 4.57783C3.25879 6.80297 5.00711 8.5513 7.23225 8.5513Z" fill="#343A40"/>
<path d="M16.8475 8.5513C19.0726 8.5513 20.821 6.80297 20.821 4.57783C20.821 2.35269 19.0726 0.60437 16.8475 0.60437C14.6223 0.60437 12.874 2.35269 12.874 4.57783C12.874 6.80297 14.6223 8.5513 16.8475 8.5513Z" fill="#343A40"/>
<path d="M14.4634 16.4982C14.4634 16.7366 14.3045 16.8955 14.0661 16.8955H0.397346C0.158939 16.8955 0 16.7366 0 16.4982C0 13.2399 3.25824 10.538 7.2317 10.538C9.0595 10.538 10.7284 11.0942 11.9999 12.0479C13.5098 13.1604 14.4634 14.7498 14.4634 16.4982Z" fill="#343A40"/>
<path d="M24.0001 16.4982C24.0001 16.7366 23.8411 16.8955 23.6027 16.8955H15.9737C15.9737 16.7366 15.9737 16.6571 15.9737 16.4982C15.9737 14.432 15.02 12.6042 13.4307 11.1737C14.3843 10.7764 15.5763 10.538 16.7684 10.538C20.8213 10.538 24.0001 13.2399 24.0001 16.4982Z" fill="#343A40"/>
</svg>
